<?xml version="1.0" encoding="UTF-8"?>
<svg width="158px" height="55px" viewBox="0 0 158 55" version="1.1" xmlns="http://www.w3.org/2000/svg" xmlns:xlink="http://www.w3.org/1999/xlink">
    <title>Logo</title>
    <defs>
        <path d="M6.304,0.798 C21.414,0.798 35.895,7.74 43.311,17.544 L39.425,17.544 C32.617,10.993 21.921,6.61 10.825,6.61 C8.156,6.61 5.626,6.864 3.266,7.341 L3.263,2.844 L0.024,1.218 C2.031,0.942 4.127,0.798 6.304,0.798" id="path-1"></path>
        <linearGradient x1="49.999538%" y1="223.87615%" x2="49.999538%" y2="-123.872567%" id="linearGradient-3">
            <stop stop-color="#656A6E" offset="0%"></stop>
            <stop stop-color="#A2A9AD" offset="100%"></stop>
        </linearGradient>
        <path d="M6.689,0.534 L10.262,2.328 L10.265,6.271 L5.516,8.79 L0.491,6.899 L0.75,1.976 L6.689,0.534 Z M5.34,2.079 L5.34,2.079 C4.17,2.226 3.243,2.951 2.926,3.856 C3.348,3.285 4.056,2.866 4.896,2.76 C6.366,2.575 7.688,3.426 7.846,4.66 C7.928,5.287 7.693,5.891 7.251,6.36 C8.081,5.849 8.58,4.99 8.465,4.091 C8.296,2.784 6.897,1.884 5.34,2.079 Z M5.295,1.726 L5.295,1.726 C3.505,1.951 2.21,3.351 2.404,4.853 C2.597,6.355 4.205,7.39 5.994,7.165 C7.784,6.939 9.079,5.539 8.886,4.038 C8.693,2.536 7.084,1.501 5.295,1.726 L5.295,1.726 Z" id="path-4"></path>
        <linearGradient x1="49.9989769%" y1="94.0055717%" x2="49.9989769%" y2="5.99685078%" id="linearGradient-6">
            <stop stop-color="#656A6E" offset="0%"></stop>
            <stop stop-color="#A2A9AD" offset="100%"></stop>
        </linearGradient>
    </defs>
    <g id="Symbols" stroke="none" stroke-width="1" fill="none" fill-rule="evenodd">
        <g id="Component-/-Navigation-/-General" transform="translate(-15.000000, -15.000000)">
            <g id="Logo" transform="translate(15.000000, 15.000000)">
                <path d="M69.6560417,21.6532615 C70.6890417,23.5722615 71.4570417,25.5722615 71.9180417,27.6262615 C75.1910417,42.2032615 61.8530417,54.0252615 42.1340417,54.0252615 C22.4140417,54.0252615 3.76704175,42.2032615 0.494041748,27.6262615 C-1.34495825,19.4372615 2.05904175,12.1182615 8.89104175,7.27526149 L9.03604175,7.15526149 C9.53804175,5.66226149 10.0710417,3.23826149 10.3830417,2.34026149 C10.8710417,0.942261486 10.7570417,0.281261486 15.0660417,0.170261486 C17.3330417,0.112261486 19.3530417,-0.0447385137 20.4260417,0.0122614863 C21.1340417,0.0502614863 21.5220417,0.610261486 21.6800417,1.35326149 L15.2690417,2.60026149 L14.8280417,9.44026149 L21.2480417,11.6962615 L26.0090417,8.90026149 C26.0090417,8.90026149 26.6470417,9.93926149 25.9780417,10.6282615 C25.3130417,11.3152615 23.3810417,12.9642615 21.8890417,14.3772615 C21.1030417,15.1222615 19.8290417,15.6382615 18.4060417,15.3532615 C17.0860417,15.0902615 15.8980417,14.7472615 14.2090417,14.4722615 C13.7800417,14.7682615 13.3690417,15.0772615 12.9760417,15.3982615 C9.59604175,19.2732615 8.15604175,24.2102615 9.36304175,29.5862615 C12.1580417,42.0352615 28.0830417,52.1322615 44.9250417,52.1322615 C61.7660417,52.1322615 73.1570417,42.0352615 70.3620417,29.5862615 C70.1810417,28.7792615 69.9450417,27.9822615 69.6560417,27.1972615 L69.6560417,21.6532615" id="Fill-1" fill="#0069BD"></path>
                <g id="Group-4" transform="translate(23.975042, 0.429261)">
                    <mask id="mask-2" fill="white">
                        <use xlink:href="#path-1"></use>
                    </mask>
                    <g id="Clip-3"></g>
                    <path d="M6.304,0.798 C21.414,0.798 35.895,7.74 43.311,17.544 L39.425,17.544 C32.617,10.993 21.921,6.61 10.825,6.61 C8.156,6.61 5.626,6.864 3.266,7.341 L3.263,2.844 L0.024,1.218 C2.031,0.942 4.127,0.798 6.304,0.798" id="Fill-2" fill="url(#linearGradient-3)" mask="url(#mask-2)"></path>
                </g>
                <g id="Group-7" transform="translate(15.975042, 1.429261)">
                    <mask id="mask-5" fill="white">
                        <use xlink:href="#path-4"></use>
                    </mask>
                    <g id="Clip-6"></g>
                    <path d="M6.689,0.534 L10.262,2.328 L10.265,6.271 L5.516,8.79 L0.491,6.899 L0.75,1.976 L6.689,0.534 Z M5.34,2.079 L5.34,2.079 C4.17,2.226 3.243,2.951 2.926,3.856 C3.348,3.285 4.056,2.866 4.896,2.76 C6.366,2.575 7.688,3.426 7.846,4.66 C7.928,5.287 7.693,5.891 7.251,6.36 C8.081,5.849 8.58,4.99 8.465,4.091 C8.296,2.784 6.897,1.884 5.34,2.079 Z M5.295,1.726 L5.295,1.726 C3.505,1.951 2.21,3.351 2.404,4.853 C2.597,6.355 4.205,7.39 5.994,7.165 C7.784,6.939 9.079,5.539 8.886,4.038 C8.693,2.536 7.084,1.501 5.295,1.726 L5.295,1.726 Z" id="Fill-5" fill="url(#linearGradient-6)" mask="url(#mask-5)"></path>
                </g>
                <polyline id="Fill-8" fill="#0069BD" points="70.9480417 16.4292615 73.7430417 17.4392615 73.7430417 14.4052615 76.0030417 14.4052615 76.0030417 17.4392615 78.7630417 16.4292615 79.4490417 18.5022615 76.6580417 19.4772615 78.4480417 21.9042615 76.6580417 23.2032615 74.8290417 20.7352615 73.0260417 23.2032615 71.2720417 21.9042615 73.0260417 19.4772615 70.2350417 18.5022615 70.9480417 16.4292615"></polyline>
                <path d="M26.2010417,17.9302615 L26.2010417,31.4532615 C26.2010417,32.3282615 26.4130417,32.9302615 26.8380417,33.2472615 C27.2030417,33.5282615 27.8500417,33.6662615 28.7790417,33.6662615 L29.4900417,33.6662615 L29.4900417,34.8222615 L18.8220417,34.8222615 L18.8220417,33.6662615 L19.8200417,33.6662615 C21.3460417,33.6662615 22.1110417,32.9302615 22.1110417,31.4532615 L22.1110417,17.9302615 L18.6090417,17.9302615 C17.9080417,17.9302615 17.3990417,17.9792615 17.0930417,18.0732615 C16.5890417,18.2312615 16.2330417,18.5572615 16.0210417,19.0612615 C15.8180417,19.5162615 15.6160417,20.3062615 15.4130417,21.4272615 L14.1990417,21.4272615 L14.7320417,15.8852615 L15.6900417,15.8852615 C15.9570417,16.1322615 16.1440417,16.2762615 16.2540417,16.3002615 C16.4460417,16.3592615 16.7320417,16.3892615 17.1080417,16.3892615 L31.2040417,16.3892615 C31.7820417,16.3892615 32.2560417,16.2212615 32.6220417,15.8852615 L33.5800417,15.8852615 L34.1130417,21.4272615 L32.8980417,21.4272615 C32.7350417,20.5092615 32.6020417,19.9012615 32.5080417,19.5992615 C32.2560417,18.8342615 31.9060417,18.3552615 31.4510417,18.1622615 C31.0760417,18.0092615 30.4880417,17.9302615 29.6870417,17.9302615 L26.2010417,17.9302615" id="Fill-9" fill="#0069BD"></path>
                <path d="M40.4770417,28.6132615 L40.4770417,32.3762615 C40.4770417,33.5732615 41.1270417,34.1702615 42.4320417,34.1702615 L43.1690417,34.1702615 L43.1690417,35.1332615 L34.5250417,35.1332615 L34.5250417,34.1702615 L34.9250417,34.1702615 C35.6690417,34.1702615 36.2000417,34.0592615 36.5130417,33.8332615 C36.8840417,33.5692615 37.0690417,33.0792615 37.0690417,32.3712615 L37.0690417,22.6172615 C37.0690417,21.9002615 36.9210417,21.4102615 36.6280417,21.1392615 C36.3320417,20.8712615 35.8220417,20.7352615 35.0930417,20.7352615 L34.5750417,20.7352615 L34.5750417,19.7722615 L37.7600417,19.5832615 C39.4400417,19.4642615 40.7940417,19.4022615 41.8140417,19.4022615 C43.6540417,19.4022615 45.0990417,19.5292615 46.1450417,19.7892615 C47.1900417,20.0442615 48.0260417,20.4882615 48.6550417,21.1142615 C49.4410417,21.9002615 49.8360417,22.8392615 49.8360417,23.9252615 C49.8360417,25.9182615 48.6310417,27.2432615 46.2150417,27.9022615 C46.7830417,28.3702615 47.4410417,29.1202615 48.1900417,30.1572615 C48.6600417,30.8072615 49.4050417,31.7462615 50.4250417,32.9682615 C50.9190417,33.4622615 51.4130417,33.8162615 51.9110417,34.0222615 C52.3350417,34.1992615 52.9320417,34.3312615 53.6980417,34.4172615 L53.6980417,35.3812615 C53.3350417,35.4052615 52.8250417,35.4172615 52.1620417,35.4172615 C50.2440417,35.4172615 48.8490417,35.1952615 47.9800417,34.7542615 C47.5190417,34.5282615 47.0870417,34.2112615 46.6760417,33.8002615 C46.2270417,33.3512615 45.7160417,32.7292615 45.1450417,31.9432615 L43.7200417,29.9762615 C43.3580417,29.5112615 42.9300417,29.0542615 42.4320417,28.6132615 L40.4770417,28.6132615 Z M40.4770417,20.4642615 L40.4770417,27.5762615 L41.4400417,27.5762615 C42.9050417,27.5762615 44.0040417,27.3502615 44.7450417,26.9012615 C45.6880417,26.3372615 46.1570417,25.3782615 46.1570417,24.0202615 C46.1570417,21.6492615 44.6960417,20.4642615 41.7690417,20.4642615 L40.4770417,20.4642615 L40.4770417,20.4642615 Z" id="Fill-10" fill="#0069BD"></path>
                <path d="M63.6790417,20.7352615 L63.6790417,19.7722615 L70.0750417,19.7722615 L70.0750417,20.7352615 L69.8940417,20.7352615 C69.0990417,20.7352615 68.5310417,20.8752615 68.1850417,21.1552615 C67.8150417,21.4722615 67.6300417,22.0122615 67.6300417,22.7852615 L67.6300417,28.9342615 C67.6300417,31.1202615 67.0170417,32.7662615 65.7860417,33.8742615 C64.6050417,34.9442615 62.9090417,35.4792615 60.6990417,35.4792615 C58.5990417,35.4792615 56.9200417,35.0592615 55.6610417,34.2232615 C54.1750417,33.2442615 53.4300417,31.7622615 53.4300417,29.7782615 L53.4300417,22.4112615 C53.4300417,21.7602615 53.3060417,21.3202615 53.0550417,21.0852615 C52.8080417,20.8512615 52.3560417,20.7352615 51.7050417,20.7352615 L51.2810417,20.7352615 L51.2810417,19.7722615 L59.0110417,19.7722615 L59.0110417,20.7352615 L58.5880417,20.7352615 C57.4220417,20.7352615 56.8380417,21.2952615 56.8380417,22.4112615 L56.8380417,29.7822615 C56.8380417,31.6182615 57.5910417,32.8322615 59.0940417,33.4252615 C59.7600417,33.6922615 60.5010417,33.8252615 61.3120417,33.8252615 C62.7980417,33.8252615 63.9710417,33.4462615 64.8230417,32.6882615 C65.7080417,31.8942615 66.1480417,30.7622615 66.1480417,29.2892615 L66.1480417,23.2792615 C66.1480417,22.1062615 65.8760417,21.3452615 65.3290417,20.9992615 C65.0330417,20.8222615 64.6290417,20.7352615 64.1230417,20.7352615 L63.6790417,20.7352615" id="Fill-11" fill="#0069BD"></path>
                <path d="M87.2580417,27.9762615 L80.7630417,27.9762615 L79.5180417,31.4492615 C79.2220417,32.2742615 79.2070417,32.8472615 79.4740417,33.1722615 C79.7350417,33.5032615 80.5250417,33.6662615 81.8540417,33.6662615 L82.2300417,33.6662615 L82.2300417,34.8222615 L74.3770417,34.8222615 L74.3770417,33.6662615 L74.8260417,33.6662615 C75.6210417,33.6662615 76.2630417,33.4002615 76.7420417,32.8712615 C77.0780417,32.4862615 77.4090417,31.8442615 77.7250417,30.9452615 L82.7920417,16.8142615 L82.4760417,15.9442615 L86.8530417,15.9442615 L92.7840417,31.0042615 C93.1310417,31.8882615 93.4760417,32.5102615 93.8270417,32.8712615 C94.2860417,33.3402615 94.9280417,33.6072615 95.7430417,33.6662615 L95.7430417,34.8222615 L86.1120417,34.8222615 L86.1120417,33.6662615 L87.1490417,33.6662615 C88.0130417,33.6662615 88.5570417,33.4792615 88.7740417,33.1032615 C88.9870417,32.7332615 88.9420417,32.1692615 88.6310417,31.4092615 L87.2580417,27.9762615 Z M86.5710417,26.3462615 L83.8300417,19.4222615 L81.3500417,26.3462615 L86.5710417,26.3462615 L86.5710417,26.3462615 Z" id="Fill-12" fill="#0069BD"></path>
                <path d="M98.0900417,35.0842615 L97.4770417,30.5892615 L98.4400417,30.5892615 C99.2550417,33.0592615 100.662042,34.2932615 102.667042,34.2932615 C103.795042,34.2932615 104.626042,33.8982615 105.166042,33.1082615 C105.408042,32.7462615 105.528042,32.3342615 105.528042,31.8772615 C105.528042,31.0262615 105.071042,30.2522615 104.153042,29.5602615 C103.824042,29.3132615 102.988042,28.8402615 101.655042,28.1402615 C100.342042,27.4652615 99.4190417,26.8642615 98.8800417,26.3452615 C98.0280417,25.5232615 97.6010417,24.5512615 97.6010417,23.4272615 C97.6010417,22.5092615 97.8840417,21.7192615 98.4570417,21.0522615 C98.9870417,20.4272615 99.7040417,19.9742615 100.601042,19.6902615 C101.214042,19.4972615 101.885042,19.4022615 102.618042,19.4022615 C103.428042,19.4022615 104.157042,19.4842615 104.799042,19.6532615 C105.787042,19.9172615 106.310042,20.0482615 106.367042,20.0482615 C106.553042,20.0482615 106.734042,19.9582615 106.911042,19.7722615 L107.429042,19.7722615 L107.898042,23.7732615 L106.911042,23.7732615 C106.652042,22.8012615 106.170042,22.0152615 105.462042,21.4152615 C104.721042,20.7802615 103.861042,20.4642615 102.881042,20.4642615 C102.284042,20.4642615 101.758042,20.5952615 101.297042,20.8632615 C100.741042,21.1842615 100.465042,21.6202615 100.465042,22.1722615 C100.465042,22.8802615 100.910042,23.5302615 101.803042,24.1272615 C102.552042,24.5262615 103.305042,24.9302615 104.058042,25.3332615 C105.507042,26.1282615 106.594042,26.8892615 107.326042,27.6222615 C108.269042,28.5602615 108.738042,29.6512615 108.738042,30.8852615 C108.738042,32.6642615 107.862042,33.9892615 106.108042,34.8662615 C105.289042,35.2732615 104.408042,35.4792615 103.470042,35.4792615 C102.889042,35.4792615 102.091042,35.3472615 101.074042,35.0842615 C100.058042,34.8162615 99.4530417,34.6842615 99.2510417,34.6842615 C99.0160417,34.6842615 98.8430417,34.8162615 98.7320417,35.0842615 L98.0900417,35.0842615" id="Fill-13" fill="#0069BD"></path>
                <path d="M111.994042,35.0842615 L111.381042,30.5892615 L112.344042,30.5892615 C113.158042,33.0592615 114.566042,34.2932615 116.571042,34.2932615 C117.698042,34.2932615 118.530042,33.8982615 119.069042,33.1082615 C119.312042,32.7462615 119.432042,32.3342615 119.432042,31.8772615 C119.432042,31.0262615 118.975042,30.2522615 118.057042,29.5602615 C117.727042,29.3132615 116.892042,28.8402615 115.558042,28.1402615 C114.246042,27.4652615 113.323042,26.8642615 112.784042,26.3452615 C111.932042,25.5232615 111.504042,24.5512615 111.504042,23.4272615 C111.504042,22.5092615 111.788042,21.7192615 112.360042,21.0522615 C112.891042,20.4272615 113.607042,19.9742615 114.505042,19.6902615 C115.118042,19.4972615 115.789042,19.4022615 116.521042,19.4022615 C117.332042,19.4022615 118.061042,19.4842615 118.703042,19.6532615 C119.691042,19.9172615 120.213042,20.0482615 120.271042,20.0482615 C120.456042,20.0482615 120.637042,19.9582615 120.815042,19.7722615 L121.333042,19.7722615 L121.802042,23.7732615 L120.815042,23.7732615 C120.555042,22.8012615 120.074042,22.0152615 119.366042,21.4152615 C118.625042,20.7802615 117.764042,20.4642615 116.785042,20.4642615 C116.188042,20.4642615 115.661042,20.5952615 115.200042,20.8632615 C114.644042,21.1842615 114.369042,21.6202615 114.369042,22.1722615 C114.369042,22.8802615 114.813042,23.5302615 115.707042,24.1272615 C116.456042,24.5262615 117.209042,24.9302615 117.962042,25.3332615 C119.411042,26.1282615 120.497042,26.8892615 121.230042,27.6222615 C122.173042,28.5602615 122.642042,29.6512615 122.642042,30.8852615 C122.642042,32.6642615 121.765042,33.9892615 120.012042,34.8662615 C119.193042,35.2732615 118.312042,35.4792615 117.373042,35.4792615 C116.793042,35.4792615 115.995042,35.3472615 114.978042,35.0842615 C113.961042,34.8162615 113.356042,34.6842615 113.155042,34.6842615 C112.920042,34.6842615 112.747042,34.8162615 112.636042,35.0842615 L111.994042,35.0842615" id="Fill-14" fill="#0069BD"></path>
                <path d="M137.286042,23.3532615 C137.184042,22.5962615 137.052042,22.0822615 136.900042,21.8052615 C136.640042,21.3572615 136.204042,21.1302615 135.582042,21.1302615 L130.150042,21.1302615 L130.150042,26.6872615 L134.162042,26.6872615 C134.834042,26.6872615 135.311042,26.5552615 135.599042,26.2922615 C135.883042,26.0252615 136.027042,25.5682615 136.027042,24.9092615 L137.015042,24.9092615 L137.015042,29.8232615 L136.027042,29.8232615 C136.027042,28.9432615 135.760042,28.4082615 135.229042,28.2142615 C134.908042,28.1032615 134.426042,28.0452615 133.788042,28.0452615 L130.150042,28.0452615 L130.150042,32.4952615 C130.150042,32.9482615 130.195042,33.2522615 130.281042,33.4132615 C130.400042,33.6562615 130.664042,33.7752615 131.063042,33.7752615 L135.183042,33.7752615 C136.085042,33.7752615 136.743042,33.5732615 137.159042,33.1742615 C137.538042,32.8202615 137.826042,32.1782615 138.028042,31.2562615 L138.966042,31.2562615 L138.678042,35.1332615 L123.803042,35.1332615 L123.803042,34.1702615 L124.815042,34.1702615 C126.099042,34.1702615 126.742042,33.5772615 126.742042,32.3962615 L126.742042,22.5422615 C126.742042,21.8142615 126.560042,21.3202615 126.198042,21.0612615 C125.893042,20.8422615 125.359042,20.7352615 124.589042,20.7352615 L124.346042,20.7352615 L124.346042,19.7722615 L137.970042,19.7722615 L138.225042,23.3532615 L137.286042,23.3532615" id="Fill-15" fill="#0069BD"></path>
                <path d="M150.499042,21.0572615 L150.499042,32.3262615 C150.499042,33.0552615 150.676042,33.5572615 151.030042,33.8202615 C151.334042,34.0552615 151.873042,34.1702615 152.647042,34.1702615 L153.240042,34.1702615 L153.240042,35.1332615 L144.350042,35.1332615 L144.350042,34.1702615 L145.181042,34.1702615 C146.453042,34.1702615 147.091042,33.5572615 147.091042,32.3262615 L147.091042,21.0572615 L144.173042,21.0572615 C143.588042,21.0572615 143.164042,21.0982615 142.909042,21.1762615 C142.489042,21.3072615 142.193042,21.5792615 142.016042,21.9992615 C141.847042,22.3782615 141.678042,23.0362615 141.509042,23.9712615 L140.497042,23.9712615 L140.941042,19.3532615 L141.740042,19.3532615 C141.962042,19.5582615 142.119042,19.6782615 142.209042,19.6982615 C142.370042,19.7482615 142.608042,19.7722615 142.921042,19.7722615 L154.668042,19.7722615 C155.150042,19.7722615 155.545042,19.6322615 155.850042,19.3532615 L156.648042,19.3532615 L157.093042,23.9712615 L156.080042,23.9712615 C155.944042,23.2052615 155.833042,22.6992615 155.755042,22.4482615 C155.545042,21.8102615 155.253042,21.4102615 154.874042,21.2502615 C154.561042,21.1222615 154.072042,21.0572615 153.405042,21.0572615 L150.499042,21.0572615" id="Fill-16" fill="#0069BD"></path>
            </g>
        </g>
    </g>
</svg>